<svg width="33" height="33" viewBox="0 0 33 33" fill="none" xmlns="http://www.w3.org/2000/svg">
<path d="M16.2764 18.8177C17.3809 18.8177 18.2764 17.9223 18.2764 16.8177C18.2764 15.7132 17.3809 14.8177 16.2764 14.8177C15.1718 14.8177 14.2764 15.7132 14.2764 16.8177C14.2764 17.9223 15.1718 18.8177 16.2764 18.8177Z" fill="black"/>
<path d="M9.27637 18.8177C10.3809 18.8177 11.2764 17.9223 11.2764 16.8177C11.2764 15.7132 10.3809 14.8177 9.27637 14.8177C8.1718 14.8177 7.27637 15.7132 7.27637 16.8177C7.27637 17.9223 8.1718 18.8177 9.27637 18.8177Z" fill="black"/>
<path d="M23.2764 18.8177C24.3809 18.8177 25.2764 17.9223 25.2764 16.8177C25.2764 15.7132 24.3809 14.8177 23.2764 14.8177C22.1718 14.8177 21.2764 15.7132 21.2764 16.8177C21.2764 17.9223 22.1718 18.8177 23.2764 18.8177Z" fill="black"/>
</svg>
