<svg width="33" height="33" viewBox="0 0 33 33" fill="none" xmlns="http://www.w3.org/2000/svg">
<g clip-path="url(#clip0_4_6164)">
<path d="M16.2896 0.817871C7.43464 0.817871 0.276306 8.029 0.276306 16.9501C0.276306 24.0812 4.86289 30.1175 11.2257 32.254C12.0212 32.4146 12.3126 31.9069 12.3126 31.4798C12.3126 31.1058 12.2864 29.8239 12.2864 28.4882C7.83191 29.4499 6.90429 26.5651 6.90429 26.5651C6.18843 24.6955 5.12774 24.2149 5.12774 24.2149C3.66979 23.2267 5.23394 23.2267 5.23394 23.2267C6.85119 23.3335 7.69984 24.8826 7.69984 24.8826C9.13124 27.3397 11.4378 26.6454 12.3657 26.218C12.4982 25.1763 12.9226 24.4552 13.3733 24.0547C9.82051 23.6807 6.08255 22.2919 6.08255 16.0953C6.08255 14.3325 6.71845 12.8903 7.72604 11.7686C7.56704 11.3681 7.01017 9.71181 7.88531 7.495C7.88531 7.495 9.23744 7.06761 12.286 9.15094C13.5913 8.7978 14.9374 8.6182 16.2896 8.61667C17.6416 8.61667 19.0199 8.80387 20.2927 9.15094C23.3417 7.06761 24.6938 7.495 24.6938 7.495C25.5689 9.71181 25.0117 11.3681 24.8527 11.7686C25.8868 12.8903 26.4965 14.3325 26.4965 16.0953C26.4965 22.2919 22.7586 23.6538 19.1792 24.0547C19.7627 24.5621 20.2662 25.5234 20.2662 27.0459C20.2662 29.2093 20.2399 30.9455 20.2399 31.4795C20.2399 31.9069 20.5316 32.4146 21.3268 32.2543C27.6896 30.1173 32.2762 24.0812 32.2762 16.9501C32.3024 8.029 25.1179 0.817871 16.2896 0.817871Z" fill="black"/>
</g>
<defs>
<clipPath id="clip0_4_6164">
<rect width="32" height="32" fill="white" transform="translate(0.276306 0.817871)"/>
</clipPath>
</defs>
</svg>
