<svg width="21" height="21" viewBox="0 0 21 21" fill="none" xmlns="http://www.w3.org/2000/svg">
<path fill-rule="evenodd" clip-rule="evenodd" d="M12.4662 14.4259C11.298 15.3 9.8476 15.8177 8.27631 15.8177C4.41031 15.8177 1.27631 12.6837 1.27631 8.81775C1.27631 4.95176 4.41031 1.81775 8.27631 1.81775C12.1423 1.81775 15.2763 4.95176 15.2763 8.81775C15.2763 10.3911 14.7572 11.8433 13.881 13.0122L19.2732 18.4045L17.859 19.8187L12.4662 14.4259ZM13.2763 8.81775C13.2763 11.5792 11.0377 13.8177 8.27631 13.8177C5.51488 13.8177 3.27631 11.5792 3.27631 8.81775C3.27631 6.05633 5.51488 3.81775 8.27631 3.81775C11.0377 3.81775 13.2763 6.05633 13.2763 8.81775Z" fill="#72777D"/>
</svg>
